<svg xmlns="http://www.w3.org/2000/svg" viewBox="0 0 109.63 45"><title>logo-manager</title><path d="M19.71,7A11.37,11.37,0,0,0,14,5.53c-3.13,0-5.77,1.69-5.77,4.46,0,3,3.06,4.37,6.12,5.41,4,1.37,8.14,2.61,8.14,7.26-0.13,4-3.68,5.77-8,5.83A13.79,13.79,0,0,1,7,26.61c-0.46-.29-0.68-0.49-0.33-1.07a0.77,0.77,0,0,1,1.17-.33,12.79,12.79,0,0,0,6.84,1.69c3.45-.1,6.09-1.37,6.19-4.17,0.13-3.32-3-4.46-6.45-5.64-4-1.37-7.75-2.93-7.75-7.1,0-4,3.55-5.9,7.43-6a12.77,12.77,0,0,1,6.68,1.79c0.36,0.23.85,0.55,0.36,1.17S20.2,7.32,19.71,7Z" style="fill:#ee5245"/><path d="M38.54,14.16a1.19,1.19,0,0,1,.68,1.17V27.16a0.78,0.78,0,1,1-1.56,0V25.73a8.88,8.88,0,0,1-6.19,2.77c-3.81,0-7.17-2.9-7.17-8.11a7.77,7.77,0,0,1,7.75-8.08A12.62,12.62,0,0,1,38.54,14.16ZM25.93,20.42c0,4.24,2.61,6.55,5.57,6.65a7.61,7.61,0,0,0,6.16-3.16V15.17a12.47,12.47,0,0,0-5.6-1.43C28.77,13.74,25.93,16.31,25.93,20.42Z" style="fill:#ee5245"/><path d="M56.06,14.16a1.19,1.19,0,0,1,.68,1.17V27.16a0.78,0.78,0,1,1-1.56,0V25.73A8.88,8.88,0,0,1,49,28.5c-3.81,0-7.17-2.9-7.17-8.11a7.77,7.77,0,0,1,7.75-8.08A12.62,12.62,0,0,1,56.06,14.16ZM43.46,20.42c0,4.24,2.61,6.55,5.57,6.65a7.61,7.61,0,0,0,6.16-3.16V15.17a12.47,12.47,0,0,0-5.6-1.43C46.29,13.74,43.46,16.31,43.46,20.42Z" style="fill:#ee5245"/><path d="M72.35,14.07l1.43-1.21a0.63,0.63,0,0,1,1,.1c0.36,0.42.33,0.65-.13,1l-1.37,1.11a8,8,0,0,1,1.79,5,7.8,7.8,0,0,1-2.7,5.9,5,5,0,0,1,2.28,4.5c-0.16,2.9-2.44,5.8-6.87,5.8A8.61,8.61,0,0,1,60,32.18c-0.33-.59-0.16-0.78.29-1s0.75-.1,1.08.39a7.1,7.1,0,0,0,6.16,3.26c3.65,0,5.54-2.15,5.64-4.37a4.37,4.37,0,0,0-1.79-3.68,7.84,7.84,0,1,1-4.17-14.46A7.54,7.54,0,0,1,72.35,14.07ZM61,20.13a6.26,6.26,0,1,0,6.25-6.38A6.38,6.38,0,0,0,61,20.13Z" style="fill:#ee5245"/><path d="M80.53,5.24A1.24,1.24,0,1,1,79.29,4,1.24,1.24,0,0,1,80.53,5.24Zm-0.42,8.4V27.16a0.78,0.78,0,1,1-1.56,0V13.64A0.78,0.78,0,1,1,80.11,13.64Z" style="fill:#ee5245"/><path d="M94.6,20.55H85.09c0,4.53,3.13,6.38,6.45,6.38A8.84,8.84,0,0,0,95.45,26c0.59-.29,1-0.46,1.34,0s0.16,0.78-.39,1.11c-4.82,2.83-12.9,1.37-12.93-6.61,0-4.63,3-8.24,7.66-8.24C98.22,12.21,100,20.55,94.6,20.55Zm-9.41-1.37h9.38c3,0,1.56-5.51-3.45-5.44A5.91,5.91,0,0,0,85.19,19.18Z" style="fill:#ee5245"/><path d="M105.07,15.46a1.66,1.66,0,1,1-1.66-1.68A1.67,1.67,0,0,1,105.07,15.46Zm-3.09,0A1.43,1.43,0,1,0,103.41,14,1.45,1.45,0,0,0,102,15.46Zm2-.68a0.07,0.07,0,0,1,0,.12,0.07,0.07,0,0,1-.1,0,0.65,0.65,0,0,0-1.1.54,0.68,0.68,0,0,0,1.15.54,0.07,0.07,0,0,1,.11,0s0,0.08,0,.11a0.88,0.88,0,0,1-1.45-.67A0.84,0.84,0,0,1,104,14.78Z" style="fill:#ee5245"/><path d="M15.55,31.75V40.1a0.32,0.32,0,1,1-.64,0V32.16l-3.47,4.11a0.29,0.29,0,0,1-.5,0L7.48,32.16V40.1a0.27,0.27,0,0,1-.32.33,0.27,0.27,0,0,1-.32-0.33V31.75a0.38,0.38,0,0,1,.29-0.45,0.42,0.42,0,0,1,.52.14l3.54,4.26,3.54-4.26a0.45,0.45,0,0,1,.53-0.14A0.37,0.37,0,0,1,15.55,31.75Z" style="fill:#ee5245"/><path d="M23.06,35a0.46,0.46,0,0,1,.27.46v4.62a0.31,0.31,0,1,1-.61,0V39.55a3.47,3.47,0,0,1-2.42,1.08,2.87,2.87,0,0,1-2.8-3.17,3,3,0,0,1,3-3.16A4.93,4.93,0,0,1,23.06,35Zm-4.92,2.44a2.33,2.33,0,0,0,2.18,2.6,3,3,0,0,0,2.41-1.23V35.43a4.87,4.87,0,0,0-2.19-.56A2.43,2.43,0,0,0,18.13,37.48Z" style="fill:#ee5245"/><path d="M28,34.3a2.52,2.52,0,0,1,2.67,2.77v3a0.31,0.31,0,1,1-.61,0v-3a2,2,0,0,0-2.14-2.21,5.27,5.27,0,0,0-1.93.39v4.86a0.31,0.31,0,1,1-.61,0V35.3a0.5,0.5,0,0,1,.36-0.48A5.62,5.62,0,0,1,28,34.3Z" style="fill:#ee5245"/><path d="M37.89,35a0.46,0.46,0,0,1,.27.46v4.62a0.31,0.31,0,1,1-.61,0V39.55a3.47,3.47,0,0,1-2.42,1.08,2.87,2.87,0,0,1-2.8-3.17,3,3,0,0,1,3-3.16A4.93,4.93,0,0,1,37.89,35ZM33,37.48a2.33,2.33,0,0,0,2.18,2.6,3,3,0,0,0,2.41-1.23V35.43a4.87,4.87,0,0,0-2.19-.56A2.43,2.43,0,0,0,33,37.48Z" style="fill:#ee5245"/><path d="M44.89,35l0.56-.47a0.25,0.25,0,0,1,.41,0C46,34.73,46,34.82,45.81,35l-0.53.43a3.14,3.14,0,0,1,.7,2,3,3,0,0,1-1.06,2.3,1.94,1.94,0,0,1,.89,1.76,2.46,2.46,0,0,1-2.69,2.27,3.36,3.36,0,0,1-3-1.62c-0.13-.23-0.06-0.31.11-0.39s0.29,0,.42.15A2.77,2.77,0,0,0,43,43.1a2,2,0,0,0,2.2-1.71,1.71,1.71,0,0,0-.7-1.44,3.06,3.06,0,1,1-1.63-5.65A2.94,2.94,0,0,1,44.89,35Zm-4.44,2.37a2.44,2.44,0,1,0,2.44-2.49A2.49,2.49,0,0,0,40.45,37.36Z" style="fill:#ee5245"/><path d="M51.66,37.53H47.95A2.34,2.34,0,0,0,50.47,40,3.45,3.45,0,0,0,52,39.67c0.23-.11.38-0.18,0.52,0s0.06,0.31-.15.43c-1.88,1.11-5,.54-5.05-2.58a3,3,0,0,1,3-3.22C53.08,34.27,53.78,37.53,51.66,37.53ZM48,37h3.67c1.18,0,.61-2.15-1.35-2.13A2.31,2.31,0,0,0,48,37Z" style="fill:#ee5245"/><path d="M57.32,34.79C57.27,34.95,57.2,35,57,35a2.34,2.34,0,0,0-1.9.15v5a0.31,0.31,0,1,1-.61,0V35.24A0.62,0.62,0,0,1,55,34.62a2.73,2.73,0,0,1,2.13-.15C57.32,34.54,57.38,34.6,57.32,34.79Z" style="fill:#ee5245"/></svg>