<svg xmlns="http://www.w3.org/2000/svg" viewBox="0 0 200 80"><title>logo-styleguide</title><circle cx="162.88" cy="11.83" r="0.78" style="fill:#ececed"/><path d="M162.82,19.19a1.7,1.7,0,0,1,0-3.4h0a4,4,0,0,0,3.08-1.48l16.61-2.49L165.86,9.25a1.89,1.89,0,0,0-.78-0.69,3.93,3.93,0,0,0-1.88-.69v0H163l-0.16,0a11.94,11.94,0,0,0-11.92,11.92,0.57,0.57,0,0,0,1.13,0,10.77,10.77,0,0,1,3.76-8.18,8.5,8.5,0,0,0,7,13.29,1.7,1.7,0,0,1,1.08,3,8.65,8.65,0,0,0-.61-0.68,8.51,8.51,0,0,0-12,0c-3.18,3.18-6.49,17.37-6.62,18l-0.2.88,0.88-.2a110.92,110.92,0,0,0,12.54-3.72V65.42a2.76,2.76,0,0,0,2.76,2.75V67A1.63,1.63,0,0,1,159,65.41V41.67a21.65,21.65,0,0,0,3.12-1.55l-1.19,9.43V62.84a2.83,2.83,0,0,0,2.76,2.83V64.54a1.69,1.69,0,0,1-1.62-1.7V49.65l1.33-10.53a8.45,8.45,0,0,0,2-3.29A8.51,8.51,0,0,0,162.82,19.19ZM175,11.8l-8.38,1.26a4,4,0,0,0,0-2.55ZM162.48,38.42C160,40.94,149.15,43.74,146,44.52c0.79-3.2,3.59-14,6.11-16.53a7.46,7.46,0,0,1,1-.82,5.3,5.3,0,0,1,6.63,8.2,0.41,0.41,0,0,0-.13.23,0.67,0.67,0,0,0,.14.49,0.8,0.8,0,0,0,.54.15,0.41,0.41,0,0,0,.22-0.09A6.4,6.4,0,0,0,159.05,26,7.38,7.38,0,0,1,162.48,38.42Zm3.19-3.91a8.54,8.54,0,0,0-1.12-5.71,2.83,2.83,0,0,0-1.73-5.08,7.37,7.37,0,0,1-2.54-14.29,5.22,5.22,0,0,1,4.26.14,2.83,2.83,0,0,1-1.72,5.09h0a2.84,2.84,0,0,0,0,5.67A7.38,7.38,0,0,1,165.67,34.51Z" style="fill:#ececed"/><path d="M34.75,17.77a14.23,14.23,0,0,0-7.09-1.88c-3.91,0-7.22,2.12-7.22,5.59,0,3.79,3.83,5.46,7.67,6.77,5.06,1.71,10.19,3.26,10.19,9.09-0.16,5.06-4.61,7.22-10,7.3a17.25,17.25,0,0,1-9.46-2.37c-0.57-.37-0.86-0.61-0.41-1.35a1,1,0,0,1,1.47-.41c3,1.47,4.93,2.2,8.56,2.12,4.32-.12,7.62-1.71,7.75-5.22,0.16-4.16-3.75-5.59-8.07-7.05-5-1.71-9.7-3.67-9.7-8.89,0-5,4.44-7.38,9.3-7.46a16,16,0,0,1,8.36,2.24c0.45,0.29,1.06.69,0.45,1.47S35.36,18.13,34.75,17.77Z" style="fill:#ececed"/><path d="M58.31,26.7a1.48,1.48,0,0,1,.86,1.47V43a1,1,0,1,1-2,0V41.17a11.11,11.11,0,0,1-7.75,3.47c-4.77,0-9-3.63-9-10.15a9.72,9.72,0,0,1,9.7-10.11A15.79,15.79,0,0,1,58.31,26.7ZM42.53,34.52c0,5.3,3.26,8.2,7,8.32a9.53,9.53,0,0,0,7.71-4V28a15.61,15.61,0,0,0-7-1.79C46.08,26.17,42.53,29.39,42.53,34.52Z" style="fill:#ececed"/><path d="M80.25,26.7a1.48,1.48,0,0,1,.86,1.47V43a1,1,0,1,1-2,0V41.17a11.11,11.11,0,0,1-7.75,3.47c-4.77,0-9-3.63-9-10.15a9.72,9.72,0,0,1,9.7-10.11A15.79,15.79,0,0,1,80.25,26.7ZM64.47,34.52c0,5.3,3.26,8.2,7,8.32a9.53,9.53,0,0,0,7.71-4V28a15.61,15.61,0,0,0-7-1.79C68,26.17,64.47,29.39,64.47,34.52Z" style="fill:#ececed"/><path d="M100.63,26.57l1.79-1.51a0.79,0.79,0,0,1,1.3.12c0.45,0.53.41,0.82-.16,1.26l-1.71,1.39a10.06,10.06,0,0,1,2.24,6.32,9.76,9.76,0,0,1-3.38,7.38,6.21,6.21,0,0,1,2.85,5.63c-0.2,3.63-3.06,7.26-8.6,7.26-4.49,0-8-2.08-9.74-5.18-0.41-.73-0.2-1,0.37-1.26s0.94-.12,1.35.49a8.88,8.88,0,0,0,7.71,4.08c4.57,0,6.93-2.69,7.05-5.46a5.46,5.46,0,0,0-2.24-4.61,9.82,9.82,0,1,1-5.22-18.1A9.43,9.43,0,0,1,100.63,26.57ZM86.4,34.16a7.83,7.83,0,1,0,7.83-8A8,8,0,0,0,86.4,34.16Z" style="fill:#ececed"/><path d="M110.87,15.52A1.55,1.55,0,1,1,109.32,14,1.55,1.55,0,0,1,110.87,15.52ZM110.34,26V43a1,1,0,1,1-2,0V26A1,1,0,1,1,110.34,26Z" style="fill:#ececed"/><path d="M128.48,34.69H116.58c0,5.67,3.91,8,8.07,8a11.06,11.06,0,0,0,4.89-1.14c0.73-.37,1.22-0.57,1.67,0s0.2,1-.49,1.39c-6,3.55-16.15,1.71-16.19-8.28,0-5.79,3.79-10.32,9.58-10.32C133,24.25,135.25,34.69,128.48,34.69ZM116.7,33h11.74c3.79,0,2-6.89-4.32-6.81C120,26.21,117.27,29,116.7,33Z" style="fill:#ececed"/><path d="M141.58,28.32a2.08,2.08,0,1,1-2.08-2.1A2.09,2.09,0,0,1,141.58,28.32Zm-3.87,0a1.79,1.79,0,1,0,1.79-1.85A1.82,1.82,0,0,0,137.71,28.32Zm2.51-.85a0.09,0.09,0,0,1,0,.15,0.08,0.08,0,0,1-.13,0,0.82,0.82,0,0,0-1.37.67,0.85,0.85,0,0,0,1.43.68,0.09,0.09,0,0,1,.13,0c0.06,0.06,0,.09,0,0.14a1.1,1.1,0,0,1-1.82-.84A1.05,1.05,0,0,1,140.22,27.47Z" style="fill:#ececed"/><path d="M25.45,62V57.25c0-.5.08-0.68,0.71-0.68s0.71,0.18.71,0.68V62c0,3.37-2.21,4-3.88,4s-3.91-.68-3.91-4V57.25c0-.5.08-0.68,0.72-0.68s0.71,0.18.71,0.68V62c0,2.26,1.27,2.85,2.48,2.84S25.45,64.24,25.45,62Z" style="fill:#d72727"/><path d="M30.69,57.25v7.91c0,0.5,0,.68-0.68.68s-0.69-.18-0.69-0.68V57.25c0-.5,0-0.68.69-0.68S30.69,56.75,30.69,57.25Z" style="fill:#d72727"/><path d="M41.23,58.06a4.22,4.22,0,0,0-1.9-.5c-1,0-1.84.53-1.84,1.32s1.14,1.32,2.33,1.75c1.48,0.53,2.89,1.13,2.89,2.89S41.13,66,39.36,66a5.68,5.68,0,0,1-2.93-.69C36.05,65.14,36,65,36.19,64.59s0.49-.46.82-0.32a4.71,4.71,0,0,0,2.35.54c1.12,0,1.91-.41,1.93-1.22,0-1.05-1.28-1.45-2.57-1.92s-2.63-1.09-2.63-2.74,1.54-2.53,3.19-2.54a5.06,5.06,0,0,1,2.58.67c0.36,0.19.51,0.37,0.24,0.78A0.55,0.55,0,0,1,41.23,58.06Z" style="fill:#d72727"/><path d="M45.91,58.68v1.18h1c0.31,0,.45.1,0.45,0.54s-0.14.54-.45,0.54h-1v3.29a0.79,0.79,0,0,0,1.22.63,0.43,0.43,0,0,1,.69.23c0.17,0.33.14,0.49-.15,0.64-1.14.63-3.08,0.36-3.08-1.41V60.94H44.17c-0.31,0-.45-0.1-0.45-0.54s0.14-.54.45-0.54h0.46V58.68c0-.4.12-0.57,0.64-0.57S45.91,58.28,45.91,58.68Z" style="fill:#d72727"/><path d="M54.67,60.4v6.18c0,2.72-3.15,3.06-4.95,1.91a0.54,0.54,0,0,1,.59-0.9c1.31,0.71,3,.63,3-1.05V65.68a4.36,4.36,0,0,1-1.76.33,2.49,2.49,0,0,1-2.52-2.76V60.4c0-.4.09-0.57,0.67-0.57s0.66,0.17.66,0.57v2.87A1.53,1.53,0,0,0,51.85,65a3.27,3.27,0,0,0,1.48-.4V60.4c0-.4.1-0.57,0.67-0.57S54.67,60,54.67,60.4Z" style="fill:#d72727"/><path d="M58,56.48V65.3c0,0.41-.13.57-0.66,0.57s-0.67-.15-0.67-0.57V56.48c0-.41.14-0.57,0.67-0.57S58,56.07,58,56.48Z" style="fill:#d72727"/><path d="M64.17,63.15H61A1.89,1.89,0,0,0,63,65a3.48,3.48,0,0,0,1.26-.28c0.4-.17.63-0.18,0.78,0.17a0.45,0.45,0,0,1-.23.72c-1.85,1-5.14.46-5.15-2.7a3,3,0,0,1,3.08-3.22C65.78,59.62,66.29,63.15,64.17,63.15ZM61,62.26h2.76c1,0,.5-1.59-1-1.58A1.77,1.77,0,0,0,61,62.26Z" style="fill:#d72727"/><path d="M71.78,60.22l0.44-.4a0.47,0.47,0,0,1,.77,0c0.31,0.32.18,0.53-.09,0.76l-0.4.33a3.19,3.19,0,0,1,.63,1.88,3,3,0,0,1-1,2.21A2,2,0,0,1,73,66.75a2.6,2.6,0,0,1-2.89,2.38A3.27,3.27,0,0,1,67,67.51c-0.14-.27-0.1-0.42.31-0.63S67.86,66.8,68,67a2.35,2.35,0,0,0,2,1,1.58,1.58,0,0,0,1.8-1.27,1.32,1.32,0,0,0-.56-1.22,2.92,2.92,0,0,1-1.34.32,3.09,3.09,0,1,1,0-6.18A3,3,0,0,1,71.78,60.22ZM68,62.74a1.89,1.89,0,1,0,1.89-2A1.92,1.92,0,0,0,68,62.74Z" style="fill:#d72727"/><path d="M74.73,60.41c0-.41.09-0.58,0.65-0.58s0.67,0.17.67,0.58v2.88A1.48,1.48,0,0,0,77.5,65,3.8,3.8,0,0,0,79,64.73V60.41c0-.41.1-0.58,0.67-0.58s0.67,0.17.67,0.58v4.38a0.81,0.81,0,0,1-.6.78,5.57,5.57,0,0,1-2.2.46,2.57,2.57,0,0,1-2.83-2.77V60.41Z" style="fill:#d72727"/><path d="M84,57.19a0.81,0.81,0,1,1-.81-0.81A0.81,0.81,0,0,1,84,57.19ZM83.84,60.4V65.3c0,0.41-.14.57-0.68,0.57s-0.66-.15-0.66-0.57V60.4c0-.41.14-0.57,0.66-0.57S83.84,60,83.84,60.4Z" style="fill:#d72727"/><path d="M85.69,62.86a3,3,0,0,1,2.85-3.2,3.06,3.06,0,0,1,2,.73V56.48c0-.41.14-0.57,0.67-0.57s0.66,0.15.66,0.57v8.18a0.88,0.88,0,0,1-.71.89C88.82,66.58,85.69,66.12,85.69,62.86Zm4.86,1.75V61.54a2.31,2.31,0,0,0-1.77-.82A1.89,1.89,0,0,0,87,62.87C87,65.07,88.91,65.36,90.54,64.6Z" style="fill:#d72727"/><path d="M98,63.15H94.78a1.89,1.89,0,0,0,2,1.83,3.48,3.48,0,0,0,1.26-.28c0.4-.17.63-0.18,0.78,0.17a0.45,0.45,0,0,1-.23.72c-1.85,1-5.14.46-5.15-2.7a3,3,0,0,1,3.08-3.22C99.56,59.62,100.07,63.15,98,63.15Zm-3.16-.89h2.76c1,0,.5-1.59-1-1.58A1.77,1.77,0,0,0,94.79,62.26Z" style="fill:#d72727"/></svg>